<?xml version="1.0" encoding="utf-8"?>
<!-- Generator: Adobe Illustrator 19.0.0, SVG Export Plug-In . SVG Version: 6.00 Build 0)  -->
<svg version="1.1" id="Layer_1" xmlns="http://www.w3.org/2000/svg" xmlns:xlink="http://www.w3.org/1999/xlink" x="0px" y="0px"
	 viewBox="0 0 117 116.2" style="enable-background:new 0 0 117 116.2;" xml:space="preserve">
<style type="text/css">
	.st0{fill:#99D6D2;}
</style>
<g id="XMLID_273_">
	<path id="XMLID_288_" class="st0" d="M38.3,77.7c-3.9,9.8-8.6,18-14.1,24.7c-5.5,6.7-10.6,11.3-15.3,13.8H8.7l-8.4-8.3v-3.3
		c4.4-3.5,8.6-9.1,12.4-16.6c3.9-7.6,5.8-16.9,5.8-28.1c0-4.1-0.5-7.7-1.5-10.8c-1-3.1-2.2-5.7-3.5-7.8c-1.4-2.1-3.2-4.5-5.4-7.3
		c-2.7-3.1-4.7-5.8-6-8.3c-1.3-2.4-2-5.4-2-8.8c0-5.3,1.5-9.4,4.5-12.4S11.3,0,16,0h0.1c5.1,0,9.8,2.2,14.1,6.5
		c4.3,4.3,7.7,10.1,10.2,17.2c2.5,7.1,3.7,14.6,3.7,22.5C44.2,57.4,42.2,68,38.3,77.7z M111.2,77.7c-3.9,9.8-8.6,18-14.1,24.7
		c-5.5,6.7-10.6,11.3-15.3,13.8h-0.3l-8.4-8.3v-3.3c4.4-3.5,8.6-9.1,12.4-16.6c3.9-7.6,5.8-16.9,5.8-28.1c0-4.1-0.5-7.7-1.5-10.8
		c-1-3.1-2.2-5.7-3.5-7.8c-1.4-2.1-3.2-4.5-5.4-7.3c-2.7-3.1-4.7-5.8-6-8.3c-1.3-2.4-2-5.4-2-8.8c0-5.3,1.5-9.4,4.5-12.4
		S84.2,0,88.9,0H89c5.1,0,9.8,2.2,14.1,6.5c4.3,4.3,7.7,10.1,10.2,17.2c2.5,7.1,3.7,14.6,3.7,22.5C117,57.4,115.1,68,111.2,77.7z"/>
</g>
</svg>
